<svg width="40" height="25" viewBox="0 0 40 25" fill="none" xmlns="http://www.w3.org/2000/svg">
<path d="M32.0514 8.24987C31.1204 8.24362 30.2331 8.39362 29.402 8.68111L27.3462 5.24992H32.4951C33.3261 5.24992 33.9948 4.58118 33.9948 3.74994V1.74998C33.9948 0.918739 33.3261 0.25 32.4951 0.25H29.6644C29.2395 0.25 28.8334 0.431247 28.5522 0.743742L26.2089 3.34995L24.7842 0.974988C24.5093 0.524995 24.0219 0.25 23.497 0.25H18.4981C17.9482 0.25 17.4983 0.699993 17.4983 1.24998V2.24997C17.4983 2.79996 17.9482 3.24995 18.4981 3.24995H22.6472L23.8469 5.24992H14.2427C13.1367 3.80619 11.4371 2.74996 8.00031 2.74996H4.5323C3.68873 2.74996 2.98264 3.43745 3.00138 4.28118C3.01388 5.09367 3.68249 5.74991 4.50106 5.74991H8.00031C9.53123 5.74991 10.4185 6.43115 10.9872 7.29989L10.2811 8.58111C9.46875 8.33737 8.60018 8.22487 7.70038 8.25612C3.49503 8.40612 0.102002 11.8498 0.00202337 16.0622C-0.0979552 20.5684 3.52002 24.2496 8.00031 24.2496C11.7245 24.2496 14.8551 21.6997 15.7487 18.2497H21.01C21.8661 18.2497 22.5472 17.5372 22.5097 16.681C22.3785 13.7373 23.6032 10.8248 26.0215 8.86861L26.8025 10.1686C25.0779 11.6498 23.9844 13.8498 24.0031 16.306C24.0344 20.6559 27.5774 24.2121 31.9264 24.2496C36.4005 24.2934 40.0372 20.6559 39.9997 16.181C39.956 11.8311 36.4005 8.28112 32.0514 8.24987ZM8.00031 21.2497C5.24465 21.2497 3.00138 19.0059 3.00138 16.2497C3.00138 13.4935 5.24465 11.2498 8.00031 11.2498C8.26276 11.2498 8.5252 11.2686 8.78139 11.3123L6.1882 16.0247C5.63832 17.0247 6.36316 18.2497 7.50042 18.2497H12.5806C11.8057 20.0122 10.0436 21.2497 8.00031 21.2497ZM36.9879 16.5247C36.8504 19.0622 34.8008 21.1122 32.2701 21.2434C29.3895 21.3997 26.9962 19.0997 26.9962 16.2497C26.9962 14.9123 27.5211 13.6998 28.3772 12.806L31.464 17.956C31.7452 18.431 32.3638 18.581 32.8387 18.2997L33.6948 17.7872C34.1697 17.506 34.3197 16.8872 34.0385 16.4122L31.0016 11.3561C31.3266 11.2873 31.6577 11.2561 31.9952 11.2561C34.8446 11.2498 37.1378 13.6435 36.9879 16.5247Z" fill="#4771B7"/>
</svg>
