<svg width="93" height="93" viewBox="0 0 93 93" fill="none" xmlns="http://www.w3.org/2000/svg">
<g clip-path="url(#clip0_59_5)">
<path fill-rule="evenodd" clip-rule="evenodd" d="M49.2396 60.8646C48.5129 61.5911 47.5275 61.9992 46.5 61.9992C45.4725 61.9992 44.487 61.5911 43.7604 60.8646L21.8395 38.9437C21.4694 38.5863 21.1742 38.1587 20.9711 37.6859C20.768 37.2132 20.6611 36.7047 20.6566 36.1902C20.6522 35.6756 20.7502 35.1654 20.9451 34.6892C21.1399 34.2129 21.4276 33.7803 21.7915 33.4165C22.1553 33.0526 22.5879 32.7649 23.0642 32.5701C23.5404 32.3752 24.0506 32.2772 24.5652 32.2816C25.0797 32.2861 25.5882 32.393 26.0609 32.5961C26.5337 32.7992 26.9613 33.0944 27.3187 33.4645L46.5 52.6457L65.6812 33.4645C66.4121 32.7586 67.3909 32.368 68.4069 32.3769C69.4229 32.3857 70.3948 32.7932 71.1133 33.5117C71.8317 34.2301 72.2393 35.202 72.2481 36.2181C72.2569 37.2341 71.8663 38.2129 71.1605 38.9437L49.2396 60.8646Z" fill="#4771B7"/>
</g>
<defs>
<clipPath id="clip0_59_5">
<rect width="93" height="93" fill="white"/>
</clipPath>
</defs>
</svg>
