<svg width="35" height="30" viewBox="0 0 35 30" fill="none" xmlns="http://www.w3.org/2000/svg">
<path d="M0 0.25L5.55406 5.94757L7.68833 4.02456L5.75604 0.267325L0 0.25ZM25.0367 16.2087C26.0859 16.4989 27.2154 15.9026 27.5129 14.8307C27.8009 13.7782 27.1884 12.6716 26.129 12.3728L25.3072 12.1454L24.2404 15.9726L25.0367 16.2087ZM24.3899 11.8992L17.7435 10.0203C17.306 9.9062 16.8649 10.1704 16.7417 10.6086L16.1204 12.8384C15.9986 13.2772 16.2342 13.7248 16.6804 13.8569L23.3319 15.7185L24.3899 11.8992ZM25.4384 18.2378C24.9148 17.7326 24.2723 17.3644 23.5689 17.1666L15.5094 14.9021L10.5583 6.08833C10.2958 5.63212 9.87583 5.27192 9.33333 5.1225C8.24833 4.81571 7.11958 5.45599 6.82281 6.54454C6.67926 7.04342 6.73567 7.57789 6.98031 8.03661L13.1739 18.9394C13.1739 18.9394 13.6814 19.7559 14.9581 20.1781L26.2179 23.3478L31.4402 28.6671C31.6152 28.8512 31.8434 28.9912 32.114 29.0714C32.9015 29.2908 33.7232 28.8158 33.9515 28.0341C34.1009 27.4818 33.9259 26.9022 33.5315 26.542L25.4384 18.2378ZM31.4497 20.4416L32.62 21.9777L35 19.3697L32.989 18.245C33.18 16.8316 32.305 15.463 30.9057 15.0682C29.3665 14.6372 27.7652 15.533 27.3379 17.0785C26.899 18.6327 27.8009 20.2294 29.3402 20.6603C30.0752 20.8704 30.819 20.7563 31.4497 20.4416Z" fill="#4771B7"/>
</svg>
