<svg width="153" height="26" viewBox="0 0 153 26" fill="none" xmlns="http://www.w3.org/2000/svg">
<path d="M13.6818 19.3963L5.62784 25.2131L8.80256 15.7528L0.727273 9.91477H10.6136L13.6818 0.454544L16.75 9.91477H26.6364L18.5611 15.7528L21.7358 25.2131L13.6818 19.3963ZM45.0588 19.3963L37.0048 25.2131L40.1795 15.7528L32.1042 9.91477H41.9906L45.0588 0.454544L48.127 9.91477H58.0133L49.938 15.7528L53.1127 25.2131L45.0588 19.3963ZM76.4357 19.3963L68.3817 25.2131L71.5565 15.7528L63.4812 9.91477H73.3675L76.4357 0.454544L79.5039 9.91477H89.3903L81.315 15.7528L84.4897 25.2131L76.4357 19.3963ZM107.813 19.3963L99.7587 25.2131L102.933 15.7528L94.8581 9.91477H104.744L107.813 0.454544L110.881 9.91477H120.767L112.692 15.7528L115.867 25.2131L107.813 19.3963ZM139.19 19.3963L131.136 25.2131L134.31 15.7528L126.235 9.91477H136.121L139.19 0.454544L142.258 9.91477H152.144L144.069 15.7528L147.244 25.2131L139.19 19.3963Z" fill="#4771B7"/>
</svg>
