<svg width="183" height="45" viewBox="0 0 183 45" fill="none" xmlns="http://www.w3.org/2000/svg">
<g filter="url(#filter0_d_345_19)">
<path d="M70.4483 27.85H66.4483L64.4983 22.15H57.1983L55.2483 27.85H51.2483L58.3983 7.29995H63.2983L70.4483 27.85ZM60.8483 11.5249L58.4233 18.625H63.2733L60.8483 11.5249ZM78.3377 28.225C77.0211 28.225 75.8211 27.95 74.7377 27.4C73.6544 26.8666 72.7877 26.075 72.1377 25.025C71.5044 23.9583 71.1877 22.6666 71.1877 21.15V19.375C71.1877 17.8583 71.5044 16.575 72.1377 15.525C72.7877 14.4583 73.6544 13.6583 74.7377 13.125C75.8211 12.575 77.0211 12.3 78.3377 12.3C79.9044 12.3 81.2961 12.7 82.5127 13.5C83.7294 14.3 84.5711 15.4416 85.0377 16.925L81.3377 18.25C81.0877 17.45 80.7044 16.8583 80.1877 16.475C79.6711 16.075 79.0544 15.875 78.3377 15.875C77.4211 15.875 76.6544 16.1833 76.0377 16.8C75.4211 17.4 75.1127 18.2916 75.1127 19.475V21.05C75.1127 22.2333 75.4211 23.1333 76.0377 23.75C76.6544 24.35 77.4211 24.65 78.3377 24.65C79.0544 24.65 79.6711 24.4583 80.1877 24.075C80.7044 23.675 81.0877 23.075 81.3377 22.275L85.0377 23.6C84.5711 25.0833 83.7294 26.225 82.5127 27.025C81.2961 27.825 79.9044 28.225 78.3377 28.225ZM96.7354 27.55C96.2854 27.7666 95.7521 27.9333 95.1354 28.05C94.5187 28.1666 93.9187 28.225 93.3354 28.225C91.8521 28.225 90.6854 27.8416 89.8354 27.075C89.0021 26.3083 88.5854 25.2083 88.5854 23.775V16.25H86.2854V12.675H88.5854V8.79995H92.5104V12.675H96.0104V16.25H92.5104V23.15C92.5104 23.7 92.6271 24.0916 92.8604 24.325C93.0937 24.5416 93.4521 24.65 93.9354 24.65C94.5521 24.65 95.2104 24.525 95.9104 24.275L96.7354 27.55ZM101.064 10.45C100.447 10.45 99.9219 10.2416 99.4885 9.82495C99.0719 9.39162 98.8635 8.86662 98.8635 8.24995C98.8635 7.63328 99.0719 7.11662 99.4885 6.69995C99.9219 6.26662 100.447 6.04995 101.064 6.04995C101.68 6.04995 102.197 6.26662 102.614 6.69995C103.047 7.11662 103.264 7.63328 103.264 8.24995C103.264 8.86662 103.047 9.39162 102.614 9.82495C102.197 10.2416 101.68 10.45 101.064 10.45ZM103.039 27.85H99.1135V12.675H103.039V27.85ZM115.099 28.225C113.482 28.225 111.99 27.8666 110.624 27.15C109.257 26.45 108.165 25.4333 107.349 24.1C106.549 22.75 106.149 21.1583 106.149 19.325V15.825C106.149 14.0083 106.549 12.425 107.349 11.075C108.165 9.72495 109.257 8.69995 110.624 7.99995C111.99 7.28328 113.482 6.92495 115.099 6.92495C116.715 6.92495 118.207 7.28328 119.574 7.99995C120.94 8.69995 122.024 9.72495 122.824 11.075C123.64 12.425 124.049 14.0083 124.049 15.825V19.325C124.049 21.1583 123.64 22.75 122.824 24.1C122.024 25.4333 120.94 26.45 119.574 27.15C118.207 27.8666 116.715 28.225 115.099 28.225ZM115.099 24.575C116.015 24.575 116.857 24.375 117.624 23.975C118.39 23.5583 118.999 22.9416 119.449 22.125C119.899 21.3083 120.124 20.325 120.124 19.175V15.975C120.124 14.825 119.89 13.85 119.424 13.05C118.974 12.2333 118.365 11.6166 117.599 11.2C116.849 10.7833 116.015 10.575 115.099 10.575C114.182 10.575 113.34 10.7833 112.574 11.2C111.824 11.6166 111.215 12.2333 110.749 13.05C110.299 13.85 110.074 14.825 110.074 15.975V19.175C110.074 20.325 110.299 21.3083 110.749 22.125C111.215 22.9416 111.824 23.5583 112.574 23.975C113.34 24.375 114.182 24.575 115.099 24.575ZM134.915 12.3C135.932 12.3 136.874 12.5666 137.74 13.1C138.607 13.6166 139.299 14.3666 139.815 15.35C140.349 16.3166 140.615 17.45 140.615 18.75V27.85H136.69V18.9C136.69 16.8666 135.715 15.85 133.765 15.85C132.965 15.85 132.274 16.1 131.69 16.6C131.124 17.0833 130.84 17.7416 130.84 18.575V27.85H126.915V12.675H130.59L130.74 14.375C131.19 13.7416 131.774 13.2416 132.49 12.875C133.207 12.4916 134.015 12.3 134.915 12.3Z" fill="#4771B7"/>
</g>
<g filter="url(#filter1_d_345_19)">
<path d="M19.5111 1.43975C21.4471 -0.496382 24.5665 -0.477418 26.4793 1.48238C27.7045 2.73798 28.2485 4.27442 27.8927 5.87715L27.8428 6.10219C26.9059 10.2429 24.8325 14.1715 21.6264 17.378C20.2269 18.7797 18.6549 19.9927 16.9488 20.9873C16.3156 21.3565 15.6653 21.6944 15 22C15.6152 20.9875 16.1519 19.928 16.6052 18.8316C18.3102 14.7086 18.786 10.1856 18.029 5.8376C18.0233 5.77294 17.9699 5.51196 17.9699 5.51196C17.7772 4.01922 18.3715 2.57958 19.5111 1.43975Z" fill="#A5D7E6"/>
</g>
<g filter="url(#filter2_d_345_19)">
<path d="M15.6702 21.2382C16.3342 20.9442 16.9834 20.6192 17.6154 20.264C19.3178 19.3073 20.8867 18.1403 22.2835 16.792C25.4832 13.7075 27.5525 9.92831 28.4875 5.945C28.5374 5.73199 28.5616 5.57441 28.6057 5.35689C28.8622 4.10597 29.5172 2.93549 30.5176 1.97107C33.1837 -0.59923 37.3881 -0.73353 40.1155 2.02805C40.7995 2.72058 41.8926 3.54827 42 5.70732C42.0017 6.61997 41.9451 7.53332 41.8312 8.44145C41.2302 13.2502 39.0235 17.9024 35.2174 21.5714C30.2509 26.3597 23.6015 28.4694 17.1521 27.9129C15.0516 27.7317 12.987 27.268 11.0167 26.5346C8.84731 25.7264 6.81804 24.5976 5 23.1879C8.62891 23.3797 12.2968 22.7297 15.6702 21.2382Z" fill="#7DC7E3"/>
</g>
<g filter="url(#filter3_d_345_19)">
<path d="M3.27683 21.1534C3.90414 21.7964 4.56918 22.4003 5.26835 22.9622C7.02304 24.3739 8.98162 25.5042 11.0755 26.3136C12.9771 27.0481 14.97 27.5126 16.9976 27.6938C23.2233 28.2512 29.6411 26.1384 34.4353 21.3442C38.9133 16.8661 41.07 10.9377 40.9514 5.0338C40.6876 3.56734 40.1037 3.7568 40.1236 3C40.2625 3.11378 40.884 3.72149 41.34 4.38104C47.0497 13.0872 46.0728 24.9423 38.4525 32.5632C31.4675 39.5484 21.036 40.8411 12.7748 36.4767C10.7979 35.4321 8.94545 34.0645 7.29408 32.3725C6.55149 31.6121 5.86344 30.7989 5.23518 29.9393C3.59601 27.6967 2.39008 25.1608 1.6808 22.4652C1.33139 21.1397 1.10349 19.7844 1 18.4164C1.68571 19.3887 2.44707 20.3039 3.27683 21.1534Z" fill="#4771B7"/>
</g>
<defs>
<filter id="filter0_d_345_19" x="50.2483" y="6.04993" width="95.3669" height="28.175" filterUnits="userSpaceOnUse" color-interpolation-filters="sRGB">
<feFlood flood-opacity="0" result="BackgroundImageFix"/>
<feColorMatrix in="SourceAlpha" type="matrix" values="0 0 0 0 0 0 0 0 0 0 0 0 0 0 0 0 0 0 127 0" result="hardAlpha"/>
<feOffset dx="2" dy="3"/>
<feGaussianBlur stdDeviation="1.5"/>
<feComposite in2="hardAlpha" operator="out"/>
<feColorMatrix type="matrix" values="0 0 0 0 0 0 0 0 0 0 0 0 0 0 0 0 0 0 0.25 0"/>
<feBlend mode="normal" in2="BackgroundImageFix" result="effect1_dropShadow_345_19"/>
<feBlend mode="normal" in="SourceGraphic" in2="effect1_dropShadow_345_19" result="shape"/>
</filter>
<filter id="filter1_d_345_19" x="14" y="0" width="19" height="28" filterUnits="userSpaceOnUse" color-interpolation-filters="sRGB">
<feFlood flood-opacity="0" result="BackgroundImageFix"/>
<feColorMatrix in="SourceAlpha" type="matrix" values="0 0 0 0 0 0 0 0 0 0 0 0 0 0 0 0 0 0 127 0" result="hardAlpha"/>
<feOffset dx="2" dy="3"/>
<feGaussianBlur stdDeviation="1.5"/>
<feComposite in2="hardAlpha" operator="out"/>
<feColorMatrix type="matrix" values="0 0 0 0 0 0 0 0 0 0 0 0 0 0 0 0 0 0 0.25 0"/>
<feBlend mode="normal" in2="BackgroundImageFix" result="effect1_dropShadow_345_19"/>
<feBlend mode="normal" in="SourceGraphic" in2="effect1_dropShadow_345_19" result="shape"/>
</filter>
<filter id="filter2_d_345_19" x="4" y="0" width="43" height="34" filterUnits="userSpaceOnUse" color-interpolation-filters="sRGB">
<feFlood flood-opacity="0" result="BackgroundImageFix"/>
<feColorMatrix in="SourceAlpha" type="matrix" values="0 0 0 0 0 0 0 0 0 0 0 0 0 0 0 0 0 0 127 0" result="hardAlpha"/>
<feOffset dx="2" dy="3"/>
<feGaussianBlur stdDeviation="1.5"/>
<feComposite in2="hardAlpha" operator="out"/>
<feColorMatrix type="matrix" values="0 0 0 0 0 0 0 0 0 0 0 0 0 0 0 0 0 0 0.25 0"/>
<feBlend mode="normal" in2="BackgroundImageFix" result="effect1_dropShadow_345_19"/>
<feBlend mode="normal" in="SourceGraphic" in2="effect1_dropShadow_345_19" result="shape"/>
</filter>
<filter id="filter3_d_345_19" x="0" y="3" width="50" height="42" filterUnits="userSpaceOnUse" color-interpolation-filters="sRGB">
<feFlood flood-opacity="0" result="BackgroundImageFix"/>
<feColorMatrix in="SourceAlpha" type="matrix" values="0 0 0 0 0 0 0 0 0 0 0 0 0 0 0 0 0 0 127 0" result="hardAlpha"/>
<feOffset dx="2" dy="3"/>
<feGaussianBlur stdDeviation="1.5"/>
<feComposite in2="hardAlpha" operator="out"/>
<feColorMatrix type="matrix" values="0 0 0 0 0 0 0 0 0 0 0 0 0 0 0 0 0 0 0.25 0"/>
<feBlend mode="normal" in2="BackgroundImageFix" result="effect1_dropShadow_345_19"/>
<feBlend mode="normal" in="SourceGraphic" in2="effect1_dropShadow_345_19" result="shape"/>
</filter>
</defs>
</svg>
