<svg width="225" height="66" viewBox="0 0 225 66" fill="none" xmlns="http://www.w3.org/2000/svg">
<g filter="url(#filter0_d_59_12)">
<path d="M107.32 46.24H100.92L97.8 37.12H86.12L83 46.24H76.6L88.04 13.36H95.88L107.32 46.24ZM91.96 20.12L88.08 31.48H95.84L91.96 20.12ZM119.943 46.84C117.836 46.84 115.916 46.4 114.183 45.52C112.45 44.6667 111.063 43.4 110.023 41.72C109.01 40.0133 108.503 37.9467 108.503 35.52V32.68C108.503 30.2533 109.01 28.2 110.023 26.52C111.063 24.8133 112.45 23.5333 114.183 22.68C115.916 21.8 117.836 21.36 119.943 21.36C122.45 21.36 124.676 22 126.623 23.28C128.57 24.56 129.916 26.3867 130.663 28.76L124.743 30.88C124.343 29.6 123.73 28.6533 122.903 28.04C122.076 27.4 121.09 27.08 119.943 27.08C118.476 27.08 117.25 27.5733 116.263 28.56C115.276 29.52 114.783 30.9467 114.783 32.84V35.36C114.783 37.2533 115.276 38.6933 116.263 39.68C117.25 40.64 118.476 41.12 119.943 41.12C121.09 41.12 122.076 40.8133 122.903 40.2C123.73 39.56 124.343 38.6 124.743 37.32L130.663 39.44C129.916 41.8133 128.57 43.64 126.623 44.92C124.676 46.2 122.45 46.84 119.943 46.84ZM149.379 45.76C148.659 46.1067 147.806 46.3733 146.819 46.56C145.833 46.7467 144.873 46.84 143.939 46.84C141.566 46.84 139.699 46.2267 138.339 45C137.006 43.7733 136.339 42.0133 136.339 39.72V27.68H132.659V21.96H136.339V15.76H142.619V21.96H148.219V27.68H142.619V38.72C142.619 39.6 142.806 40.2267 143.179 40.6C143.553 40.9467 144.126 41.12 144.899 41.12C145.886 41.12 146.939 40.92 148.059 40.52L149.379 45.76ZM156.304 18.4C155.318 18.4 154.478 18.0667 153.784 17.4C153.118 16.7067 152.784 15.8667 152.784 14.88C152.784 13.8933 153.118 13.0667 153.784 12.4C154.478 11.7067 155.318 11.36 156.304 11.36C157.291 11.36 158.118 11.7067 158.784 12.4C159.478 13.0667 159.824 13.8933 159.824 14.88C159.824 15.8667 159.478 16.7067 158.784 17.4C158.118 18.0667 157.291 18.4 156.304 18.4ZM159.464 46.24H153.184V21.96H159.464V46.24ZM178.761 46.84C176.174 46.84 173.787 46.2667 171.601 45.12C169.414 44 167.667 42.3733 166.361 40.24C165.081 38.08 164.441 35.5333 164.441 32.6V27C164.441 24.0933 165.081 21.56 166.361 19.4C167.667 17.24 169.414 15.6 171.601 14.48C173.787 13.3333 176.174 12.76 178.761 12.76C181.347 12.76 183.734 13.3333 185.921 14.48C188.107 15.6 189.841 17.24 191.121 19.4C192.427 21.56 193.081 24.0933 193.081 27V32.6C193.081 35.5333 192.427 38.08 191.121 40.24C189.841 42.3733 188.107 44 185.921 45.12C183.734 46.2667 181.347 46.84 178.761 46.84ZM178.761 41C180.227 41 181.574 40.68 182.801 40.04C184.027 39.3733 185.001 38.3867 185.721 37.08C186.441 35.7733 186.801 34.2 186.801 32.36V27.24C186.801 25.4 186.427 23.84 185.681 22.56C184.961 21.2533 183.987 20.2667 182.761 19.6C181.561 18.9333 180.227 18.6 178.761 18.6C177.294 18.6 175.947 18.9333 174.721 19.6C173.521 20.2667 172.547 21.2533 171.801 22.56C171.081 23.84 170.721 25.4 170.721 27.24V32.36C170.721 34.2 171.081 35.7733 171.801 37.08C172.547 38.3867 173.521 39.3733 174.721 40.04C175.947 40.68 177.294 41 178.761 41ZM210.467 21.36C212.094 21.36 213.601 21.7867 214.987 22.64C216.374 23.4667 217.481 24.6667 218.307 26.24C219.161 27.7867 219.587 29.6 219.587 31.68V46.24H213.307V31.92C213.307 28.6667 211.747 27.04 208.627 27.04C207.347 27.04 206.241 27.44 205.307 28.24C204.401 29.0133 203.947 30.0667 203.947 31.4V46.24H197.667V21.96H203.547L203.787 24.68C204.507 23.6667 205.441 22.8667 206.587 22.28C207.734 21.6667 209.027 21.36 210.467 21.36Z" fill="#4771B7"/>
</g>
<g filter="url(#filter1_d_59_12)">
<path d="M29.9401 2.15963C32.9186 -0.744573 37.7177 -0.716127 40.6605 2.22357C42.5454 4.10696 43.3823 6.41163 42.835 8.81573L42.7581 9.15329C41.3168 15.3643 38.127 21.2572 33.1945 26.067C31.0414 28.1696 28.6229 29.9891 25.9982 31.481C25.0241 32.0347 24.0236 32.5416 23 33C23.9464 31.4813 24.7721 29.8921 25.4696 28.2473C28.0926 22.0629 28.8246 15.2784 27.66 8.7564C27.6512 8.65941 27.5691 8.26794 27.5691 8.26794C27.2727 6.02883 28.187 3.86937 29.9401 2.15963Z" fill="#A5D7E6"/>
</g>
<g filter="url(#filter2_d_59_12)">
<path d="M23.1495 32.6158C24.1545 32.1644 25.1371 31.6651 26.0935 31.1198C28.6702 29.6504 31.0448 27.8583 33.1587 25.7878C38.0017 21.0508 41.1335 15.247 42.5487 9.12982C42.6241 8.80271 42.6608 8.56071 42.7276 8.22666C43.1157 6.3056 44.1072 4.50808 45.6212 3.027C49.6565 -0.920246 56.0199 -1.12649 60.1478 3.11451C61.183 4.17803 62.8374 5.44913 62.9999 8.76482C63.0026 10.1664 62.9169 11.569 62.7445 12.9637C61.8349 20.3485 58.495 27.493 52.7344 33.1275C45.2175 40.4809 35.1536 43.7208 25.3923 42.8662C22.2133 42.588 19.0884 41.8758 16.1064 40.7496C12.823 39.5084 9.75162 37.7749 7 35.61C12.4924 35.9045 18.0438 34.9064 23.1495 32.6158Z" fill="#7DC7E3"/>
</g>
<g filter="url(#filter3_d_59_12)">
<path d="M4.467 32.7344C5.42222 33.7167 6.43489 34.6393 7.49954 35.4979C10.1715 37.6546 13.1538 39.3815 16.3422 40.618C19.2379 41.7402 22.2725 42.4499 25.36 42.7266C34.84 43.5782 44.6126 40.3503 51.9128 33.0259C58.7316 26.1842 62.0157 17.1271 61.8351 8.1072C61.4333 5.86677 60.5443 6.15623 60.5746 5C60.7861 5.17383 61.7325 6.10227 62.4268 7.10992C71.1211 20.4111 69.6335 38.5229 58.0299 50.166C47.3937 60.8379 31.5094 62.8128 18.9299 56.1449C15.9196 54.5491 13.0988 52.4596 10.5842 49.8747C9.4534 48.7129 8.40569 47.4706 7.44902 46.1572C4.95301 42.7311 3.11671 38.8568 2.03667 34.7385C1.50462 32.7134 1.15758 30.6428 1 28.5528C2.04416 30.0383 3.20349 31.4364 4.467 32.7344Z" fill="#4771B7"/>
</g>
<defs>
<filter id="filter0_d_59_12" x="75.6" y="11.36" width="148.987" height="41.48" filterUnits="userSpaceOnUse" color-interpolation-filters="sRGB">
<feFlood flood-opacity="0" result="BackgroundImageFix"/>
<feColorMatrix in="SourceAlpha" type="matrix" values="0 0 0 0 0 0 0 0 0 0 0 0 0 0 0 0 0 0 127 0" result="hardAlpha"/>
<feOffset dx="2" dy="3"/>
<feGaussianBlur stdDeviation="1.5"/>
<feComposite in2="hardAlpha" operator="out"/>
<feColorMatrix type="matrix" values="0 0 0 0 0 0 0 0 0 0 0 0 0 0 0 0 0 0 0.25 0"/>
<feBlend mode="normal" in2="BackgroundImageFix" result="effect1_dropShadow_59_12"/>
<feBlend mode="normal" in="SourceGraphic" in2="effect1_dropShadow_59_12" result="shape"/>
</filter>
<filter id="filter1_d_59_12" x="22" y="0" width="26" height="39" filterUnits="userSpaceOnUse" color-interpolation-filters="sRGB">
<feFlood flood-opacity="0" result="BackgroundImageFix"/>
<feColorMatrix in="SourceAlpha" type="matrix" values="0 0 0 0 0 0 0 0 0 0 0 0 0 0 0 0 0 0 127 0" result="hardAlpha"/>
<feOffset dx="2" dy="3"/>
<feGaussianBlur stdDeviation="1.5"/>
<feComposite in2="hardAlpha" operator="out"/>
<feColorMatrix type="matrix" values="0 0 0 0 0 0 0 0 0 0 0 0 0 0 0 0 0 0 0.25 0"/>
<feBlend mode="normal" in2="BackgroundImageFix" result="effect1_dropShadow_59_12"/>
<feBlend mode="normal" in="SourceGraphic" in2="effect1_dropShadow_59_12" result="shape"/>
</filter>
<filter id="filter2_d_59_12" x="6" y="0" width="62" height="49" filterUnits="userSpaceOnUse" color-interpolation-filters="sRGB">
<feFlood flood-opacity="0" result="BackgroundImageFix"/>
<feColorMatrix in="SourceAlpha" type="matrix" values="0 0 0 0 0 0 0 0 0 0 0 0 0 0 0 0 0 0 127 0" result="hardAlpha"/>
<feOffset dx="2" dy="3"/>
<feGaussianBlur stdDeviation="1.5"/>
<feComposite in2="hardAlpha" operator="out"/>
<feColorMatrix type="matrix" values="0 0 0 0 0 0 0 0 0 0 0 0 0 0 0 0 0 0 0.25 0"/>
<feBlend mode="normal" in2="BackgroundImageFix" result="effect1_dropShadow_59_12"/>
<feBlend mode="normal" in="SourceGraphic" in2="effect1_dropShadow_59_12" result="shape"/>
</filter>
<filter id="filter3_d_59_12" x="0" y="5" width="73" height="61" filterUnits="userSpaceOnUse" color-interpolation-filters="sRGB">
<feFlood flood-opacity="0" result="BackgroundImageFix"/>
<feColorMatrix in="SourceAlpha" type="matrix" values="0 0 0 0 0 0 0 0 0 0 0 0 0 0 0 0 0 0 127 0" result="hardAlpha"/>
<feOffset dx="2" dy="3"/>
<feGaussianBlur stdDeviation="1.5"/>
<feComposite in2="hardAlpha" operator="out"/>
<feColorMatrix type="matrix" values="0 0 0 0 0 0 0 0 0 0 0 0 0 0 0 0 0 0 0.25 0"/>
<feBlend mode="normal" in2="BackgroundImageFix" result="effect1_dropShadow_59_12"/>
<feBlend mode="normal" in="SourceGraphic" in2="effect1_dropShadow_59_12" result="shape"/>
</filter>
</defs>
</svg>
