<svg width="39" height="39" viewBox="0 0 39 39" fill="none" xmlns="http://www.w3.org/2000/svg">
<path fill-rule="evenodd" clip-rule="evenodd" d="M26 14.625C26 16.3489 25.3152 18.0022 24.0962 19.2212C22.8772 20.4402 21.2239 21.125 19.5 21.125C17.7761 21.125 16.1228 20.4402 14.9038 19.2212C13.6848 18.0022 13 16.3489 13 14.625C13 12.9011 13.6848 11.2478 14.9038 10.0288C16.1228 8.80982 17.7761 8.125 19.5 8.125C21.2239 8.125 22.8772 8.80982 24.0962 10.0288C25.3152 11.2478 26 12.9011 26 14.625ZM22.75 14.625C22.75 15.487 22.4076 16.3136 21.7981 16.9231C21.1886 17.5326 20.362 17.875 19.5 17.875C18.638 17.875 17.8114 17.5326 17.2019 16.9231C16.5924 16.3136 16.25 15.487 16.25 14.625C16.25 13.763 16.5924 12.9364 17.2019 12.3269C17.8114 11.7174 18.638 11.375 19.5 11.375C20.362 11.375 21.1886 11.7174 21.7981 12.3269C22.4076 12.9364 22.75 13.763 22.75 14.625Z" fill="#4771B7"/>
<path fill-rule="evenodd" clip-rule="evenodd" d="M19.5 1.625C9.62813 1.625 1.625 9.62813 1.625 19.5C1.625 29.3719 9.62813 37.375 19.5 37.375C29.3719 37.375 37.375 29.3719 37.375 19.5C37.375 9.62813 29.3719 1.625 19.5 1.625ZM4.875 19.5C4.875 22.8962 6.03363 26.0227 7.9755 28.5057C9.33925 26.7148 11.0986 25.2635 13.1161 24.265C15.1336 23.2666 17.3546 22.748 19.6056 22.75C21.8275 22.7479 24.0206 23.253 26.0178 24.2268C28.0149 25.2006 29.7634 26.6174 31.1301 28.3693C32.5381 26.5226 33.4861 24.3672 33.8957 22.0815C34.3053 19.7957 34.1647 17.4452 33.4856 15.2246C32.8064 13.004 31.6082 10.977 29.9902 9.31131C28.3721 7.64567 26.3807 6.38927 24.1806 5.64608C21.9806 4.90288 19.6352 4.69425 17.3385 5.03746C15.0418 5.38066 12.8599 6.26582 10.9732 7.61971C9.08659 8.9736 7.54944 10.7573 6.489 12.8232C5.42855 14.8891 4.87529 17.1778 4.875 19.5ZM19.5 34.125C16.1427 34.13 12.8867 32.9751 10.283 30.8555C11.331 29.3552 12.7259 28.1302 14.3491 27.2849C15.9722 26.4395 17.7755 25.9987 19.6056 26C21.4129 25.9986 23.1944 26.4283 24.8023 27.2536C26.4101 28.0788 27.7978 29.2758 28.8503 30.745C26.2264 32.9334 22.9167 34.1298 19.5 34.125Z" fill="#4771B7"/>
</svg>
