<svg width="30" height="31" viewBox="0 0 30 31" fill="none" xmlns="http://www.w3.org/2000/svg">
<path d="M12.0056 2.5C12.0056 1.255 13.0103 0.25 14.2549 0.25C15.4995 0.25 16.5042 1.255 16.5042 2.5C16.5042 3.745 15.4995 4.75 14.2549 4.75C13.0103 4.75 12.0056 3.745 12.0056 2.5ZM30 9.25V14.5L28.4555 15.025C28.3292 15.9183 27.8852 16.7362 27.2049 17.3285C26.5246 17.9209 25.6536 18.2481 24.7516 18.25H24.6317C24.4217 19.27 23.9269 20.185 23.2521 20.92V30.25H19.5033V22.75H19.1284C18.8135 22.75 18.4986 22.705 18.1987 22.66L11.5408 21.55L9.86129 24.565L10.9859 30.25H7.17713L6.0075 24.625C5.96251 24.175 6.0075 23.725 6.24742 23.335L7.77695 20.62C7.03261 20.2058 6.4089 19.6048 5.96719 18.8763C5.52548 18.1477 5.28097 17.3167 5.25773 16.465C5.19775 16.69 5.16776 17.02 5.21275 17.5C5.25773 18.16 5.42268 19.135 5.31772 20.215C5.25773 21.295 4.76289 22.405 4.13309 23.14C3.48829 23.875 2.78351 24.385 2.03374 24.775L0.98407 23.725C1.26898 23.02 1.55389 22.39 1.61387 21.805C1.70385 21.25 1.59888 20.8 1.43393 20.395L0.639178 18.7C0.324277 17.935 -0.0656017 16.825 0.00937486 15.52C0.0543608 14.245 0.759141 12.58 2.09372 11.665C3.4433 10.75 4.89785 10.615 6.08248 10.87C6.83224 11.02 7.597 11.38 8.2568 11.89C8.81162 11.635 9.45642 11.5 10.1312 11.5H10.5061V9.415C10.5061 7.915 11.5258 6.535 12.9953 6.295C13.4258 6.22071 13.8674 6.2414 14.2891 6.35564C14.7108 6.46987 15.1024 6.67489 15.4367 6.95634C15.7709 7.2378 16.0396 7.5889 16.224 7.98509C16.4084 8.38128 16.504 8.81298 16.5042 9.25V11.5H18.7535V10.75C18.7535 7.435 21.4377 4.75 24.7516 4.75H30L28.6654 6.76C29.4752 7.3 30 8.215 30 9.25ZM27.0009 14.05L25.4414 11.56C25.2465 11.245 24.7516 11.38 24.7516 11.755V16.75C25.9963 16.75 27.0009 15.745 27.0009 14.5V14.05Z" fill="#4771B7"/>
</svg>
