<svg width="39" height="39" viewBox="0 0 39 39" fill="none" xmlns="http://www.w3.org/2000/svg">
<path fill-rule="evenodd" clip-rule="evenodd" d="M26.5281 24.2108L35.2706 32.9533C35.5779 33.2608 35.7504 33.6778 35.7503 34.1125C35.7501 34.5472 35.5773 34.9641 35.2698 35.2714C34.9623 35.5787 34.5453 35.7512 34.1106 35.7511C33.6759 35.7509 33.259 35.5781 32.9517 35.2706L24.2092 26.5281C21.5958 28.5523 18.3093 29.5049 15.0184 29.192C11.7276 28.8792 8.67949 27.3244 6.49427 24.8439C4.30905 22.3635 3.15085 19.1438 3.25527 15.8397C3.3597 12.5357 4.71891 9.39547 7.0564 7.05798C9.39389 4.7205 12.5341 3.36128 15.8381 3.25686C19.1422 3.15244 22.3619 4.31064 24.8424 6.49586C27.3228 8.68108 28.8776 11.7292 29.1904 15.02C29.5033 18.3109 28.5507 21.5974 26.5265 24.2108H26.5281ZM16.25 25.9999C18.8358 25.9999 21.3158 24.9727 23.1443 23.1442C24.9728 21.3158 26 18.8358 26 16.25C26 13.6641 24.9728 11.1841 23.1443 9.35566C21.3158 7.52718 18.8358 6.49995 16.25 6.49995C13.6641 6.49995 11.1842 7.52718 9.3557 9.35566C7.52722 11.1841 6.49999 13.6641 6.49999 16.25C6.49999 18.8358 7.52722 21.3158 9.3557 23.1442C11.1842 24.9727 13.6641 25.9999 16.25 25.9999Z" fill="#4771B7"/>
</svg>
