<svg width="30" height="33" viewBox="0 0 30 33" fill="none" xmlns="http://www.w3.org/2000/svg">
<path d="M0 32.25V29.25H1.5C2.3 29.25 3.075 29.125 3.825 28.875C4.575 28.625 5.3 28.25 6 27.75C6.7 28.25 7.425 28.619 8.175 28.857C8.925 29.095 9.7 29.2135 10.5 29.2125C11.3 29.2125 12.0815 29.0935 12.8445 28.8555C13.6075 28.6175 14.326 28.249 15 27.75C15.7 28.25 16.425 28.619 17.175 28.857C17.925 29.095 18.7 29.2135 19.5 29.2125C20.3 29.2125 21.0815 29.0935 21.8445 28.8555C22.6075 28.6175 23.326 28.249 24 27.75C24.675 28.25 25.394 28.625 26.157 28.875C26.92 29.125 27.701 29.25 28.5 29.25H30V32.25H28.5C27.725 32.25 26.9625 32.156 26.2125 31.968C25.4625 31.78 24.725 31.499 24 31.125C23.275 31.5 22.5375 31.7815 21.7875 31.9695C21.0375 32.1575 20.275 32.251 19.5 32.25C18.725 32.25 17.9625 32.156 17.2125 31.968C16.4625 31.78 15.725 31.499 15 31.125C14.275 31.5 13.5375 31.7815 12.7875 31.9695C12.0375 32.1575 11.275 32.251 10.5 32.25C9.725 32.25 8.9625 32.156 8.2125 31.968C7.4625 31.78 6.725 31.499 6 31.125C5.275 31.5 4.5375 31.7815 3.7875 31.9695C3.0375 32.1575 2.275 32.251 1.5 32.25H0ZM9.75 3.75L18.075 5.2875C18.425 5.3375 18.7625 5.475 19.0875 5.7C19.4125 5.925 19.6875 6.2375 19.9125 6.6375L21.225 8.9625C21.875 10.0875 22.775 11 23.925 11.7C25.075 12.4 26.35 12.75 27.75 12.75V15.75C25.8 15.75 24.025 15.2625 22.425 14.2875C20.825 13.3125 19.5625 12.0375 18.6375 10.4625C18.6125 10.4875 18.4375 10.6065 18.1125 10.8195C17.7875 11.0325 17.4315 11.27 17.0445 11.532L15.9375 12.282C15.5875 12.519 15.3625 12.675 15.2625 12.75L16.2945 13.575C16.8565 14.025 17.469 14.5065 18.132 15.0195C18.795 15.5325 19.4075 16.0075 19.9695 16.4445C20.5315 16.8815 20.875 17.15 21 17.25V23.025C21.4 23.3 21.7875 23.5875 22.1625 23.8875C22.5375 24.1875 22.9 24.475 23.25 24.75C22.725 25.2 22.15 25.5625 21.525 25.8375C20.9 26.1125 20.225 26.25 19.5 26.25C18.6 26.25 17.7625 26.0375 16.9875 25.6125C16.2125 25.1875 15.55 24.65 15 24C14.45 24.65 13.7875 25.1875 13.0125 25.6125C12.2375 26.0375 11.4 26.25 10.5 26.25C10.25 26.25 10.006 26.231 9.768 26.193C9.53 26.155 9.299 26.099 9.075 26.025C6.925 24.55 5.125 23.0625 3.675 21.5625C2.225 20.0625 1.5 18.7625 1.5 17.6625C1.5 16.8875 1.8 16.375 2.4 16.125C3 15.875 3.625 15.75 4.275 15.75C5 15.75 5.8375 15.8565 6.7875 16.0695C7.7375 16.2825 8.75 16.5885 9.825 16.9875L9.0375 12.3375C8.9375 11.8375 8.994 11.344 9.207 10.857C9.42 10.37 9.751 9.976 10.2 9.675L13.425 7.5C13.35 7.5 13.169 7.4685 12.882 7.4055C12.595 7.3425 12.276 7.28 11.925 7.218C11.574 7.156 11.2555 7.0935 10.9695 7.0305C10.6815 6.9685 10.5 6.9375 10.425 6.9375L6.1875 9.825L4.5 7.35L9.75 3.75ZM12.45 14.4L13.125 18.375C13.8 18.7 14.6375 19.1315 15.6375 19.6695C16.6375 20.2075 17.425 20.651 18 21V18.75C17.925 18.7 17.6125 18.4565 17.0625 18.0195C16.5125 17.5825 15.9125 17.1135 15.2625 16.6125C14.6125 16.1125 14.006 15.6375 13.443 15.1875C12.88 14.7375 12.549 14.475 12.45 14.4ZM22.5 6C21.675 6 20.9685 5.7065 20.3805 5.1195C19.7925 4.5325 19.499 3.826 19.5 3C19.5 2.175 19.794 1.4685 20.382 0.880502C20.97 0.292502 21.676 -0.000997453 22.5 2.54669e-06C23.325 2.54669e-06 24.0315 0.294003 24.6195 0.882003C25.2075 1.47 25.501 2.176 25.5 3C25.5 3.825 25.206 4.5315 24.618 5.1195C24.03 5.7075 23.324 6.001 22.5 6Z" fill="#4771B7"/>
</svg>
