<svg width="93" height="93" viewBox="0 0 93 93" fill="none" xmlns="http://www.w3.org/2000/svg">
<g clip-path="url(#clip0_901_18)">
<path fill-rule="evenodd" clip-rule="evenodd" d="M49.2396 60.8649C48.5129 61.5913 47.5275 61.9994 46.5 61.9994C45.4725 61.9994 44.487 61.5913 43.7604 60.8649L21.8395 38.944C21.4694 38.5865 21.1742 38.1589 20.9711 37.6862C20.768 37.2134 20.6611 36.7049 20.6566 36.1904C20.6522 35.6759 20.7502 35.1656 20.9451 34.6894C21.1399 34.2132 21.4276 33.7805 21.7915 33.4167C22.1553 33.0529 22.5879 32.7651 23.0642 32.5703C23.5404 32.3755 24.0506 32.2774 24.5652 32.2819C25.0797 32.2864 25.5882 32.3933 26.0609 32.5963C26.5337 32.7994 26.9613 33.0946 27.3187 33.4647L46.5 52.646L65.6812 33.4647C66.4121 32.7589 67.3909 32.3683 68.4069 32.3771C69.4229 32.3859 70.3948 32.7935 71.1133 33.5119C71.8317 34.2304 72.2393 35.2023 72.2481 36.2183C72.2569 37.2343 71.8663 38.2131 71.1605 38.944L49.2396 60.8649Z" fill="white"/>
</g>
<defs>
<clipPath id="clip0_901_18">
<rect width="93" height="93" fill="white"/>
</clipPath>
</defs>
</svg>
