<svg width="93" height="93" viewBox="0 0 93 93" fill="none" xmlns="http://www.w3.org/2000/svg">
<g clip-path="url(#clip0_901_18)">
<path fill-rule="evenodd" clip-rule="evenodd" d="M43.7604 32.1351C44.4871 31.4087 45.4725 31.0006 46.5 31.0006C47.5275 31.0006 48.513 31.4087 49.2396 32.1351L71.1605 54.056C71.5306 54.4135 71.8258 54.8411 72.0289 55.3138C72.232 55.7866 72.3389 56.2951 72.3434 56.8096C72.3478 57.3241 72.2498 57.8344 72.0549 58.3106C71.8601 58.7868 71.5724 59.2195 71.2085 59.5833C70.8447 59.9471 70.4121 60.2349 69.9358 60.4297C69.4596 60.6245 68.9494 60.7226 68.4348 60.7181C67.9203 60.7136 67.4118 60.6067 66.9391 60.4037C66.4663 60.2006 66.0387 59.9054 65.6813 59.5353L46.5 40.354L27.3188 59.5353C26.5879 60.2411 25.6091 60.6317 24.5931 60.6229C23.5771 60.6141 22.6052 60.2065 21.8867 59.4881C21.1683 58.7696 20.7607 57.7977 20.7519 56.7817C20.7431 55.7657 21.1337 54.7869 21.8395 54.056L43.7604 32.1351Z" fill="white"/>
</g>
<defs>
<clipPath id="clip0_901_18">
<rect width="93" height="93" fill="white" transform="matrix(-1 0 0 -1 93 93)"/>
</clipPath>
</defs>
</svg>
