<svg width="35" height="32" viewBox="0 0 35 32" fill="none" xmlns="http://www.w3.org/2000/svg">
<path d="M23.4993 26.6544C24.7178 25.3285 25.9259 24.0129 27.6319 23.4443C28.4362 23.1592 29.2986 23.0761 30.1429 23.2023C30.9871 23.3285 31.7871 23.6602 32.4722 24.168C34.3493 25.543 36.0759 23.5994 34.0044 22.0848C32.9836 21.3366 31.796 20.8463 30.5435 20.6558C29.2909 20.4654 28.0107 20.5806 26.8126 20.9915C24.9459 21.6118 23.6678 22.9739 22.3922 24.336C21.3552 25.4396 20.3181 26.5458 18.9648 27.254C17.3574 28.0914 16.2037 27.1842 16.2037 25.6102V25.5792C16.2037 23.5167 15.1459 22.2192 12.963 22.2192C11.6926 22.2192 10.3911 22.886 9.07407 23.5115C5.99507 24.9759 3.10711 26.8099 0.474444 28.9728C0.210033 29.1932 0.0434964 29.5087 0.0109763 29.8508C-0.0215438 30.1929 0.0825763 30.534 0.300741 30.8001C0.948889 31.5755 1.80444 31.2188 2.45259 30.7019C3.52333 29.8412 7.06741 27.1067 10.0567 25.6877C11.2933 25.101 12.2915 24.8038 12.963 24.8038C13.6111 24.8038 13.6111 25.0674 13.6111 25.6826C13.6059 29.1098 16.9556 31.2188 20.1678 29.544C21.4744 28.859 22.4907 27.7554 23.4993 26.6544ZM3.88889 20.9269C7.77778 18.3423 12.3278 15.7577 16.8519 15.7577C18.7963 15.7577 18.7963 16.7269 18.7963 17.6961C18.7963 18.6653 18.7963 19.6346 20.7407 19.6346C27.2922 19.6346 34.6448 11.3276 35 5.41922L28.5185 8.00383L22.4467 5.48642C20.86 4.95916 20.0407 7.40937 21.6274 7.93663L24.6296 9.29613L20.7407 10.5884L10.3704 7.35768C9.75852 7.15349 9.36185 7.42746 9.07407 8.00383L5.18519 15.7577L0 18.3423L3.88889 20.9269ZM10.3704 2.83461C10.3704 2.14913 10.6435 1.49172 11.1297 1.00701C11.6159 0.522306 12.2754 0.25 12.963 0.25C13.6506 0.25 14.31 0.522306 14.7962 1.00701C15.2824 1.49172 15.5556 2.14913 15.5556 2.83461C15.5556 3.52009 15.2824 4.1775 14.7962 4.6622C14.31 5.14691 13.6506 5.41922 12.963 5.41922C12.2754 5.41922 11.6159 5.14691 11.1297 4.6622C10.6435 4.1775 10.3704 3.52009 10.3704 2.83461Z" fill="#4771B7"/>
</svg>
