<svg width="153" height="26" viewBox="0 0 153 26" fill="none" xmlns="http://www.w3.org/2000/svg">
<path d="M13.6818 19.3963L5.62784 25.2131L8.80256 15.7528L0.727273 9.91477H10.6136L13.6818 0.454544L16.75 9.91477H26.6364L18.5611 15.7528L21.7358 25.2131L13.6818 19.3963ZM13.6818 16.7543L17.6023 19.5881L16.0469 14.9432L20.0526 12.0455H15.2159L13.6818 7.35795L12.169 12.0455H7.31108L11.3168 14.9432L9.76136 19.5881L13.6818 16.7543ZM45.0588 19.3963L37.0048 25.2131L40.1795 15.7528L32.1042 9.91477H41.9906L45.0588 0.454544L48.127 9.91477H58.0133L49.938 15.7528L53.1127 25.2131L45.0588 19.3963ZM45.0588 16.7543L48.9792 19.5881L47.4238 14.9432L51.4295 12.0455H46.5929L45.0588 7.35795L43.546 12.0455H38.688L42.6937 14.9432L41.1383 19.5881L45.0588 16.7543ZM76.4357 19.3963L68.3817 25.2131L71.5565 15.7528L63.4812 9.91477H73.3675L76.4357 0.454544L79.5039 9.91477H89.3903L81.315 15.7528L84.4897 25.2131L76.4357 19.3963ZM76.4357 16.7543L80.3562 19.5881L78.8008 14.9432L82.8065 12.0455H77.9698L76.4357 7.35795L74.9229 12.0455H70.065L74.0707 14.9432L72.5153 19.5881L76.4357 16.7543ZM107.813 19.3963L99.7587 25.2131L102.933 15.7528L94.8581 9.91477H104.744L107.813 0.454544L110.881 9.91477H120.767L112.692 15.7528L115.867 25.2131L107.813 19.3963ZM107.813 16.7543L111.733 19.5881L110.178 14.9432L114.183 12.0455H109.347L107.813 7.35795L106.3 12.0455H101.442L105.448 14.9432L103.892 19.5881L107.813 16.7543ZM139.19 19.3963L131.136 25.2131L134.31 15.7528L126.235 9.91477H136.121L139.19 0.454544L142.258 9.91477H152.144L144.069 15.7528L147.244 25.2131L139.19 19.3963ZM139.19 16.7543L143.11 19.5881L141.555 14.9432L145.56 12.0455H140.724L139.19 7.35795L137.677 12.0455H132.819L136.825 14.9432L135.269 19.5881L139.19 16.7543Z" fill="#4771B7"/>
</svg>
