<svg width="23" height="23" viewBox="0 0 23 23" fill="none" xmlns="http://www.w3.org/2000/svg">
<path d="M20.8969 9.62319H20.125V9.58341H11.5V13.4167H16.916C16.1259 15.6482 14.0027 17.2501 11.5 17.2501C8.32456 17.2501 5.75 14.6755 5.75 11.5001C5.75 8.32464 8.32456 5.75008 11.5 5.75008C12.9658 5.75008 14.2993 6.30304 15.3146 7.20627L18.0253 4.49562C16.3137 2.90048 14.0243 1.91675 11.5 1.91675C6.20761 1.91675 1.91667 6.20769 1.91667 11.5001C1.91667 16.7925 6.20761 21.0834 11.5 21.0834C16.7924 21.0834 21.0833 16.7925 21.0833 11.5001C21.0833 10.8575 21.0172 10.2303 20.8969 9.62319Z" fill="#FFC107"/>
<path d="M3.02163 7.03952L6.17023 9.34862C7.02219 7.23933 9.08548 5.75008 11.5 5.75008C12.9658 5.75008 14.2993 6.30304 15.3146 7.20627L18.0253 4.49562C16.3137 2.90048 14.0243 1.91675 11.5 1.91675C7.81904 1.91675 4.62683 3.99489 3.02163 7.03952Z" fill="#FF3D00"/>
<path d="M11.5 21.0834C13.9754 21.0834 16.2246 20.1361 17.9251 18.5956L14.9591 16.0857C13.9646 16.842 12.7494 17.2511 11.5 17.2501C9.00738 17.2501 6.8909 15.6607 6.09356 13.4426L2.96844 15.8504C4.55448 18.954 7.77544 21.0834 11.5 21.0834Z" fill="#4CAF50"/>
<path d="M20.8969 9.62302H20.125V9.58325H11.5V13.4166H16.916C16.5381 14.4786 15.8572 15.4066 14.9577 16.086L14.9591 16.0851L17.9251 18.5949C17.7153 18.7856 21.0833 16.2916 21.0833 11.4999C21.0833 10.8574 21.0172 10.2301 20.8969 9.62302Z" fill="#1976D2"/>
</svg>
