<svg width="161" height="53" viewBox="0 0 161 53" fill="none" xmlns="http://www.w3.org/2000/svg">
<path d="M15.6818 23.3963L7.62784 29.2131L10.8026 19.7528L2.72727 13.9148H12.6136L15.6818 4.45454L18.75 13.9148H28.6364L20.5611 19.7528L23.7358 29.2131L15.6818 23.3963ZM47.0588 23.3963L39.0048 29.2131L42.1795 19.7528L34.1042 13.9148H43.9906L47.0588 4.45454L50.127 13.9148H60.0133L51.938 19.7528L55.1127 29.2131L47.0588 23.3963ZM78.4357 23.3963L70.3817 29.2131L73.5565 19.7528L65.4812 13.9148H75.3675L78.4357 4.45454L81.5039 13.9148H91.3903L83.315 19.7528L86.4897 29.2131L78.4357 23.3963ZM109.813 23.3963L101.759 29.2131L104.933 19.7528L96.8581 13.9148H106.744L109.813 4.45454L112.881 13.9148H122.767L114.692 19.7528L117.867 29.2131L109.813 23.3963ZM141.19 23.3963L133.136 29.2131L136.31 19.7528L128.235 13.9148H138.121L141.19 4.45454L144.258 13.9148H154.144L146.069 19.7528L149.244 29.2131L141.19 23.3963Z" fill="#4771B7"/>
<path d="M15.6818 46.3963L7.62784 52.2131L10.8026 42.7528L2.72727 36.9148H12.6136L15.6818 27.4545L18.75 36.9148H28.6364L20.5611 42.7528L23.7358 52.2131L15.6818 46.3963ZM15.6818 43.7543L19.6023 46.5881L18.0469 41.9432L22.0526 39.0455H17.2159L15.6818 34.358L14.169 39.0455H9.31108L13.3168 41.9432L11.7614 46.5881L15.6818 43.7543ZM47.0588 46.3963L39.0048 52.2131L42.1795 42.7528L34.1042 36.9148H43.9906L47.0588 27.4545L50.127 36.9148H60.0133L51.938 42.7528L55.1127 52.2131L47.0588 46.3963ZM47.0588 43.7543L50.9792 46.5881L49.4238 41.9432L53.4295 39.0455H48.5929L47.0588 34.358L45.546 39.0455H40.688L44.6937 41.9432L43.1383 46.5881L47.0588 43.7543ZM78.4357 46.3963L70.3817 52.2131L73.5565 42.7528L65.4812 36.9148H75.3675L78.4357 27.4545L81.5039 36.9148H91.3903L83.315 42.7528L86.4897 52.2131L78.4357 46.3963ZM78.4357 43.7543L82.3562 46.5881L80.8008 41.9432L84.8065 39.0455H79.9698L78.4357 34.358L76.9229 39.0455H72.065L76.0707 41.9432L74.5153 46.5881L78.4357 43.7543ZM109.813 46.3963L101.759 52.2131L104.933 42.7528L96.8581 36.9148H106.744L109.813 27.4545L112.881 36.9148H122.767L114.692 42.7528L117.867 52.2131L109.813 46.3963ZM109.813 43.7543L113.733 46.5881L112.178 41.9432L116.183 39.0455H111.347L109.813 34.358L108.3 39.0455H103.442L107.448 41.9432L105.892 46.5881L109.813 43.7543ZM141.19 46.3963L133.136 52.2131L136.31 42.7528L128.235 36.9148H138.121L141.19 27.4545L144.258 36.9148H154.144L146.069 42.7528L149.244 52.2131L141.19 46.3963ZM141.19 43.7543L145.11 46.5881L143.555 41.9432L147.56 39.0455H142.724L141.19 34.358L139.677 39.0455H134.819L138.825 41.9432L137.269 46.5881L141.19 43.7543Z" fill="#4771B7"/>
</svg>
