<svg width="30" height="30" viewBox="0 0 30 30" fill="none" xmlns="http://www.w3.org/2000/svg">
<path d="M1.60714 0.25C1.1809 0.25 0.772119 0.413679 0.470721 0.70503C0.169323 0.996382 0 1.39154 0 1.80357V9.05357C0 9.4656 0.169323 9.86076 0.470721 10.1521C0.772119 10.4435 1.1809 10.6071 1.60714 10.6071C2.03338 10.6071 2.44217 10.4435 2.74356 10.1521C3.04496 9.86076 3.21429 9.4656 3.21429 9.05357V5.55286L7.97143 10.1514C8.27609 10.4259 8.67904 10.5752 9.0954 10.5681C9.51176 10.561 9.90902 10.398 10.2035 10.1134C10.4979 9.82872 10.6666 9.44471 10.6739 9.04222C10.6813 8.63974 10.5267 8.25022 10.2429 7.95571L5.48571 3.35714H9.10714C9.53338 3.35714 9.94217 3.19346 10.2436 2.90211C10.545 2.61076 10.7143 2.2156 10.7143 1.80357C10.7143 1.39154 10.545 0.996382 10.2436 0.70503C9.94217 0.413679 9.53338 0.25 9.10714 0.25H1.60714ZM1.60714 29.25C1.1809 29.25 0.772119 29.0863 0.470721 28.795C0.169323 28.5036 0 28.1085 0 27.6964V20.4464C0 20.0344 0.169323 19.6392 0.470721 19.3479C0.772119 19.0565 1.1809 18.8929 1.60714 18.8929C2.03338 18.8929 2.44217 19.0565 2.74356 19.3479C3.04496 19.6392 3.21429 20.0344 3.21429 20.4464V23.9471L7.97143 19.3486C8.27609 19.0741 8.67904 18.9247 9.0954 18.9319C9.51176 18.939 9.90902 19.102 10.2035 19.3866C10.4979 19.6713 10.6666 20.0553 10.6739 20.4578C10.6813 20.8603 10.5267 21.2498 10.2429 21.5443L5.48571 26.1429H9.10714C9.53338 26.1429 9.94217 26.3065 10.2436 26.5979C10.545 26.8892 10.7143 27.2844 10.7143 27.6964C10.7143 28.1085 10.545 28.5036 10.2436 28.795C9.94217 29.0863 9.53338 29.25 9.10714 29.25H1.60714ZM30 1.80357C30 1.39154 29.8307 0.996382 29.5293 0.70503C29.2279 0.413679 28.8191 0.25 28.3929 0.25H20.8929C20.4666 0.25 20.0578 0.413679 19.7564 0.70503C19.455 0.996382 19.2857 1.39154 19.2857 1.80357C19.2857 2.2156 19.455 2.61076 19.7564 2.90211C20.0578 3.19346 20.4666 3.35714 20.8929 3.35714H24.5143L19.7571 7.95571C19.4733 8.25022 19.3187 8.63974 19.3261 9.04222C19.3334 9.44471 19.5021 9.82872 19.7965 10.1134C20.091 10.398 20.4882 10.561 20.9046 10.5681C21.321 10.5752 21.7239 10.4259 22.0286 10.1514L26.7857 5.55286V9.05357C26.7857 9.4656 26.955 9.86076 27.2564 10.1521C27.5578 10.4435 27.9666 10.6071 28.3929 10.6071C28.8191 10.6071 29.2279 10.4435 29.5293 10.1521C29.8307 9.86076 30 9.4656 30 9.05357V1.80357ZM28.3929 29.25C28.8191 29.25 29.2279 29.0863 29.5293 28.795C29.8307 28.5036 30 28.1085 30 27.6964V20.4464C30 20.0344 29.8307 19.6392 29.5293 19.3479C29.2279 19.0565 28.8191 18.8929 28.3929 18.8929C27.9666 18.8929 27.5578 19.0565 27.2564 19.3479C26.955 19.6392 26.7857 20.0344 26.7857 20.4464V23.9471L22.0286 19.3486C21.8814 19.1959 21.704 19.0735 21.5069 18.9886C21.3097 18.9037 21.0969 18.858 20.8811 18.8543C20.6653 18.8507 20.451 18.889 20.2509 18.9672C20.0507 19.0453 19.869 19.1616 19.7163 19.3091C19.5637 19.4567 19.4434 19.6324 19.3626 19.8258C19.2818 20.0193 19.2421 20.2265 19.2459 20.4351C19.2497 20.6437 19.2969 20.8494 19.3848 21.04C19.4726 21.2305 19.5992 21.4021 19.7571 21.5443L24.5143 26.1429H20.8929C20.4666 26.1429 20.0578 26.3065 19.7564 26.5979C19.455 26.8892 19.2857 27.2844 19.2857 27.6964C19.2857 28.1085 19.455 28.5036 19.7564 28.795C20.0578 29.0863 20.4666 29.25 20.8929 29.25H28.3929Z" fill="#4771B7"/>
</svg>
